<?xml version="1.0" encoding="UTF-8"?>
<svg version="1.1" xmlns="http://www.w3.org/2000/svg" width="843" height="670">
<path d="M0 0 C278.19 0 556.38 0 843 0 C843 221.1 843 442.2 843 670 C564.81 670 286.62 670 0 670 C0 448.9 0 227.8 0 0 Z " fill="#FEFEFE" transform="translate(0,0)"/>
<path d="M0 0 C1.35158203 0.63808594 1.35158203 0.63808594 2.73046875 1.2890625 C25.15708171 12.60829765 32.75868751 41.28942412 41.53448486 63.14083862 C47.17119359 77.16114051 53.10012448 91.05305754 59.0625 104.9375 C59.75696228 106.55547989 59.75696228 106.55547989 60.4654541 108.20614624 C61.79994446 111.31374873 63.13581861 114.42075035 64.47265625 117.52734375 C65.06884514 118.91309601 65.06884514 118.91309601 65.67707825 120.32684326 C68.08061768 125.90150768 70.52151844 131.45824562 73 137 C73.00213753 135.86153625 73.00213753 135.86153625 73.00431824 134.70007324 C73.02220415 127.52074265 73.06398133 120.34212457 73.13209057 113.16310883 C73.16627133 109.4729156 73.19145647 105.78313241 73.19555664 102.09277344 C73.19985905 98.52621225 73.22847923 94.96057461 73.27343178 91.39430237 C73.29259756 89.38270892 73.2870683 87.37092868 73.28105164 85.35925293 C73.42145452 76.49123235 74.94166543 71.44644973 80.87890625 64.94140625 C81.43449219 64.48636719 81.99007813 64.03132813 82.5625 63.5625 C83.12066406 63.08941406 83.67882812 62.61632812 84.25390625 62.12890625 C88.97969187 59.07353255 94.90422641 59.77977714 100.3125 59.75 C101.23740234 59.729375 102.16230469 59.70875 103.11523438 59.6875 C110.19659974 59.64723637 114.65078663 60.89700556 120.6875 64.6875 C126.68403052 70.68403052 127.46145237 76.58293568 127.51989746 84.73553467 C127.50865845 85.99545227 127.49741943 87.25536987 127.48583984 88.5534668 C127.48798915 89.91285059 127.49187195 91.27223258 127.49734497 92.63160706 C127.50699456 96.30562582 127.49178652 99.97915452 127.47143888 103.65311408 C127.45377752 107.51473348 127.45739485 111.37633977 127.4581604 115.23799133 C127.45629021 121.72669588 127.43897158 128.21521285 127.41162109 134.70385742 C127.38023966 142.1757756 127.36962287 149.64748809 127.3710922 157.11946744 C127.37245048 165.10901267 127.35852041 173.09847996 127.34019899 181.08800149 C127.33596317 183.37287147 127.33452027 185.65772862 127.33372116 187.94260216 C127.33169014 191.55505777 127.31930364 195.16734527 127.29938889 198.7797451 C127.29089649 200.71542002 127.29187013 202.65112948 127.29327393 204.58682251 C127.17972684 220.35156809 125.41325982 235.27029121 114 247 C103.10694127 256.42636853 93.30553963 259.27585637 79.06103516 258.26318359 C73.90108146 257.60428403 69.49457267 255.50712882 65 253 C64.0409375 252.51080078 64.0409375 252.51080078 63.0625 252.01171875 C48.1259802 243.05672193 42.33637045 223.23659362 35.90686035 208.12341309 C34.35715694 204.49478327 32.78330375 200.87666558 31.2109375 197.2578125 C28.52590841 191.07297154 25.85126119 184.88375411 23.18359375 178.69140625 C18.92176449 168.80263595 14.61985745 158.93150593 10.3125 149.0625 C3.72444344 133.96387963 -2.83920491 118.85496388 -9.38232422 103.73681641 C-12.06152264 97.54704392 -14.74409388 91.35873224 -17.42614746 85.17019653 C-18.82196398 81.94944747 -20.21761648 78.72862733 -21.61328125 75.5078125 C-22.07516846 74.44191895 -22.53705566 73.37602539 -23.01293945 72.27783203 C-23.33866943 71.52614746 -23.66439941 70.77446289 -24 70 C-35.12849856 94.62468112 -44.43287396 120.04668011 -53.98272705 145.31072998 C-55.32416183 148.85695653 -56.66890216 152.40192438 -58.01396179 155.94677734 C-59.5936406 160.10997279 -61.17191787 164.27369911 -62.75 168.4375 C-63.04041168 169.20350525 -63.33082336 169.9695105 -63.6300354 170.75872803 C-64.4572968 172.94170911 -65.28343177 175.12511365 -66.109375 177.30859375 C-66.36693573 177.9873909 -66.62449646 178.66618805 -66.88986206 179.36555481 C-68.33148116 183.17786847 -69.70104608 187.00840881 -71.03515625 190.859375 C-73.06683916 196.47207035 -75.7814083 201.60887108 -78.6875 206.8125 C-79.47870239 208.24154663 -79.47870239 208.24154663 -80.28588867 209.69946289 C-92.59277922 231.72889014 -92.59277922 231.72889014 -101 239 C-101.61359375 239.556875 -102.2271875 240.11375 -102.859375 240.6875 C-104.87686552 242.4951715 -106.9337238 244.2484044 -109 246 C-109.69222656 246.61617187 -110.38445312 247.23234375 -111.09765625 247.8671875 C-124.96006987 259.7084945 -140.47810931 265.77360405 -158 270 C-158.84309219 270.25924507 -158.84309219 270.25924507 -159.70321655 270.52372742 C-162.78010119 271.16176571 -165.70196964 271.12479126 -168.84472656 271.12597656 C-169.52496384 271.1278447 -170.20520111 271.12971283 -170.90605164 271.13163757 C-172.37980013 271.13563282 -173.85355479 271.13771561 -175.32730865 271.13809967 C-178.46890188 271.14152919 -181.61029075 271.1629108 -184.75181198 271.18333054 C-190.59514836 271.22126464 -196.43826454 271.25261902 -202.28173828 271.25048828 C-206.35207966 271.24969846 -210.42166891 271.27317787 -214.49181366 271.3123703 C-216.03701134 271.3227902 -217.58229626 271.32438398 -219.12751007 271.31671906 C-227.65078446 271.27866445 -234.20917078 271.40077572 -241 277 C-246.88509856 280.12452724 -251.90548249 280.57951933 -258.4375 280.5625 C-259.40381348 280.56008301 -260.37012695 280.55766602 -261.36572266 280.55517578 C-273.585804 280.24578104 -284.9204783 276.43861429 -294 268 C-294.59941406 267.50113281 -295.19882812 267.00226563 -295.81640625 266.48828125 C-303.95814743 259.22577778 -308.41552144 248.51602894 -309.25 237.78515625 C-309.72986748 223.97397025 -305.06544614 213.42875929 -295.8125 203.3125 C-287.01747112 194.9083613 -276.21714579 191.51667909 -264.31616211 191.49584961 C-258.55841607 191.64431361 -253.48854041 192.65259315 -248.0625 194.5625 C-247.09026489 194.9028125 -247.09026489 194.9028125 -246.09838867 195.25 C-241.95434688 196.8618908 -238.65254686 198.9664108 -235.05126953 201.57104492 C-228.67957193 205.6441245 -223.44522879 205.9925596 -216.01953125 205.859375 C-214.80786789 205.86132874 -213.59620453 205.86328247 -212.3478241 205.86529541 C-209.79714889 205.86131631 -207.2464482 205.84019045 -204.69604492 205.80273438 C-200.83970948 205.75036948 -196.9874265 205.76155731 -193.13085938 205.78125 C-179.92917436 205.75371236 -168.24130597 205.24172881 -156 200 C-155.03674805 199.60111572 -154.07349609 199.20223145 -153.08105469 198.79125977 C-135.70540981 191.23239344 -123.79946206 175.30801539 -116.87109375 158.21484375 C-114.88018072 152.45369927 -113.99700266 147.17961041 -113.98046875 141.078125 C-113.24022602 130.23251147 -108.50683181 120.65038372 -104.3125 110.75 C-103.44433328 108.66003871 -102.57806013 106.56928988 -101.71362305 104.4777832 C-99.97827722 100.28693912 -98.23228186 96.10080553 -96.4765625 91.91845703 C-94.25583902 86.62328855 -92.07123593 81.31426007 -89.90625 75.99609375 C-63.67931108 11.62247679 -63.67931108 11.62247679 -38.8828125 0.1875 C-27.49561509 -4.50316126 -11.24550468 -5.63334133 0 0 Z " fill="#547FB8" transform="translate(504,133)"/>
<path d="M0 0 C20.8725 -0.0825 41.745 -0.165 63.25 -0.25 C69.80262695 -0.28641602 76.35525391 -0.32283203 83.10644531 -0.36035156 C91.20458984 -0.37841797 91.20458984 -0.37841797 95.01434326 -0.3817749 C97.63462267 -0.38785541 100.25408687 -0.40023437 102.87420654 -0.42230225 C118.69590084 -0.54969557 133.63328461 -0.03836865 149 4 C150.08993256 4.27473145 151.17986511 4.54946289 152.30282593 4.83251953 C154.68426327 5.45268879 157.027548 6.1374804 159.375 6.875 C160.19967773 7.13200684 161.02435547 7.38901367 161.87402344 7.65380859 C164.25762903 8.41324074 166.63039937 9.19804509 169 10 C169.97791504 10.32774414 169.97791504 10.32774414 170.97558594 10.66210938 C181.79392115 14.41647023 190.22617566 20.86318305 199 28 C199.90443848 28.73089844 199.90443848 28.73089844 200.82714844 29.4765625 C221.22544823 46.05796777 221.22544823 46.05796777 223 53 C222.25779966 55.71044765 221.44517664 58.00869284 220.3359375 60.5625 C220.03266037 61.29815689 219.72938324 62.03381378 219.41691589 62.79176331 C218.41900507 65.20155827 217.39719261 67.60041673 216.375 70 C215.67797805 71.67111548 214.98259819 73.34291678 214.28881836 75.01538086 C212.88090913 78.40203617 211.46368411 81.78453335 210.03759766 85.16357422 C208.2084764 89.49866981 206.40072944 93.84219328 204.60546875 98.19140625 C204.34641251 98.81843948 204.08735626 99.44547272 203.82044983 100.09150696 C202.57699633 103.10221649 201.33532172 106.11365754 200.09399414 109.12524414 C197.93811362 114.34784156 195.76556754 119.55934884 193.515625 124.7421875 C189.85279178 133.30294055 187.32928613 140.47278586 187.109375 149.91796875 C186.61506698 163.84686263 178.17745252 178.84757562 169 189 C168.49339844 189.58652344 167.98679687 190.17304688 167.46484375 190.77734375 C157.08279846 202.02668521 140.97192287 211.15557663 125.42906189 212.1673584 C124.45852371 212.18625122 123.48798553 212.20514404 122.48803711 212.22460938 C121.38266098 212.24712769 120.27728485 212.269646 119.13841248 212.29284668 C114.0755026 212.36421583 109.01273287 212.42139312 103.94946289 212.45996094 C101.28620379 212.48216422 98.62624257 212.52738667 95.96313477 212.58300781 C92.1091177 212.66249676 88.25706263 212.69533504 84.40234375 212.71875 C83.22486069 212.75174194 82.04737762 212.78473389 80.83421326 212.81872559 C73.16521768 212.80036683 68.55572373 211.22483017 62.34133911 206.70091248 C51.88036362 199.10132827 37.54364197 197.09834881 25 199 C17.25609779 201.03696429 11.0753271 204.89149915 5 210 C2.525 211.98 2.525 211.98 0 214 C0 143.38 0 72.76 0 0 Z " fill="#E0732C" transform="translate(204,127)"/>
<path d="M0 0 C8.80569037 4.71042918 13.82749874 14.84236762 16.95703125 24.046875 C17.36119947 28.93765743 16.23301165 32.66685467 14.37890625 37.1171875 C14.10037811 37.81060242 13.82184998 38.50401733 13.53488159 39.21844482 C12.92404268 40.73672842 12.30864265 42.25318301 11.68927002 43.76800537 C9.96729748 47.98225308 8.28137099 52.21096237 6.58984375 56.4375 C6.04032547 57.80665054 6.04032547 57.80665054 5.47970581 59.20346069 C0.72923458 71.06384488 -3.83918287 82.99443376 -8.41796875 94.921875 C-9.24505289 97.07180208 -10.07220008 99.22170491 -10.89941406 101.37158203 C-14.93697876 111.87628427 -18.94072377 122.39315595 -22.89453125 132.9296875 C-23.25316254 133.88527557 -23.61179382 134.84086365 -23.98129272 135.82540894 C-25.73343463 140.50688177 -27.45379993 145.19657968 -29.13354492 149.90454102 C-30.45989088 153.55856892 -31.87086683 157.02515393 -33.7421875 160.44140625 C-34.22469971 161.32755615 -34.70721191 162.21370605 -35.2043457 163.12670898 C-35.70796631 164.02848877 -36.21158691 164.93026855 -36.73046875 165.859375 C-37.52167114 167.28842163 -37.52167114 167.28842163 -38.32885742 168.74633789 C-50.63574797 190.77576514 -50.63574797 190.77576514 -59.04296875 198.046875 C-59.6565625 198.60375 -60.27015625 199.160625 -60.90234375 199.734375 C-62.91983427 201.5420465 -64.97669255 203.2952794 -67.04296875 205.046875 C-67.73519531 205.66304687 -68.42742187 206.27921875 -69.140625 206.9140625 C-83.00303862 218.7553695 -98.52107806 224.82047905 -116.04296875 229.046875 C-116.88606094 229.30612007 -116.88606094 229.30612007 -117.7461853 229.57060242 C-120.82306994 230.20864071 -123.74493839 230.17166626 -126.88769531 230.17285156 C-127.56793259 230.1747197 -128.24816986 230.17658783 -128.94902039 230.17851257 C-130.42276888 230.18250782 -131.89652354 230.18459061 -133.3702774 230.18497467 C-136.51187063 230.18840419 -139.6532595 230.2097858 -142.79478073 230.23020554 C-148.63811711 230.26813964 -154.48123329 230.29949402 -160.32470703 230.29736328 C-164.39504841 230.29657346 -168.46463766 230.32005287 -172.53478241 230.3592453 C-174.07998009 230.3696652 -175.62526501 230.37125898 -177.17047882 230.36359406 C-185.69375321 230.32553945 -192.25213953 230.44765072 -199.04296875 236.046875 C-204.92806731 239.17140224 -209.94845124 239.62639433 -216.48046875 239.609375 C-217.44678223 239.60695801 -218.4130957 239.60454102 -219.40869141 239.60205078 C-231.62877275 239.29265604 -242.96344705 235.48548929 -252.04296875 227.046875 C-252.94208984 226.29857422 -252.94208984 226.29857422 -253.859375 225.53515625 C-262.00111618 218.27265278 -266.45849019 207.56290394 -267.29296875 196.83203125 C-267.77283623 183.02084525 -263.10841489 172.47563429 -253.85546875 162.359375 C-245.06043987 153.9552363 -234.26011454 150.56355409 -222.35913086 150.54272461 C-216.60138482 150.69118861 -211.53150916 151.69946815 -206.10546875 153.609375 C-205.13323364 153.9496875 -205.13323364 153.9496875 -204.14135742 154.296875 C-199.99731563 155.9087658 -196.69551561 158.0132858 -193.09423828 160.61791992 C-186.72254068 164.6909995 -181.48819754 165.0394346 -174.0625 164.90625 C-172.85083664 164.90820374 -171.63917328 164.91015747 -170.39079285 164.91217041 C-167.84011764 164.90819131 -165.28941695 164.88706545 -162.73901367 164.84960938 C-158.88267823 164.79724448 -155.03039525 164.80843231 -151.17382812 164.828125 C-137.97214311 164.80058736 -126.28427472 164.28860381 -114.04296875 159.046875 C-113.0797168 158.64799072 -112.11646484 158.24910645 -111.12402344 157.83813477 C-93.74837856 150.27926844 -81.84243081 134.35489039 -74.9140625 117.26171875 C-72.92482201 111.50541413 -72.04118894 106.24088564 -72.03125 100.14453125 C-71.2861852 89.19364571 -66.46527251 79.47930668 -62.23046875 69.484375 C-61.36020004 67.39303966 -60.49163978 65.3009926 -59.62475586 63.20825195 C-57.90688329 59.06769375 -56.17850062 54.93176656 -54.44238281 50.79882812 C-52.32748105 45.75056871 -50.27521363 40.68007797 -48.25390625 35.59375 C-47.45166689 33.59029226 -46.64827579 31.58730112 -45.84439087 29.58450317 C-45.12178773 27.77523479 -44.40976625 25.96175158 -43.69799805 24.14819336 C-43.05084839 22.55696655 -43.05084839 22.55696655 -42.390625 20.93359375 C-42.02976807 20.02826904 -41.66891113 19.12294434 -41.29711914 18.19018555 C-39.82656007 15.67703816 -38.68724135 15.13495364 -36.04296875 14.046875 C-34.42606077 12.30676339 -34.42606077 12.30676339 -32.91796875 10.296875 C-24.5027921 0.32198889 -12.44193571 -4.7148388 0 0 Z " fill="#188F9C" transform="translate(462.04296875,173.953125)"/>
<path d="M0 0 C8.08541068 -0.11681746 16.17045784 -0.20517541 24.25650883 -0.25906086 C28.01286588 -0.28494786 31.76863779 -0.31995186 35.5246582 -0.37719727 C39.1622266 -0.43227847 42.79923908 -0.46157674 46.43719292 -0.47438622 C47.81205414 -0.48349207 49.18689147 -0.50126512 50.56151009 -0.52865028 C69.48140815 -0.88993221 86.02130389 6.31269073 100 19 C113.68936387 32.30723056 121.76197274 49.36209389 122.30078125 68.49609375 C122.31521764 70.80985409 122.31895951 73.12370364 122.3125 75.4375 C122.32861328 76.58798828 122.34472656 77.73847656 122.36132812 78.92382812 C122.36737941 89.60434598 120.15318435 98.66294594 115.25 108.125 C114.90074463 108.80876709 114.55148926 109.49253418 114.19165039 110.19702148 C111.34565642 115.62547954 108.11930512 120.44307817 104 125 C103.49339844 125.58652344 102.98679687 126.17304688 102.46484375 126.77734375 C92.1276046 137.97813604 75.91002056 147.27052416 60.39541626 148.14717102 C59.40979706 148.15701523 58.42417786 148.16685944 57.40869141 148.17700195 C56.28717682 148.18983719 55.16566223 148.20267242 54.01016235 148.21589661 C52.8028244 148.22328354 51.59548645 148.23067047 50.3515625 148.23828125 C49.10627777 148.246353 47.86099304 148.25442474 46.57797241 148.26274109 C43.94354543 148.27656915 41.30924304 148.28758978 38.67480469 148.29516602 C35.9782864 148.3040348 33.28228197 148.32493318 30.5859375 148.35668945 C26.6951541 148.39928059 22.80504982 148.41552304 18.9140625 148.42578125 C17.10912827 148.45204338 17.10912827 148.45204338 15.26773071 148.47883606 C14.1399118 148.47591049 13.0120929 148.47298492 11.85009766 148.4699707 C10.36928207 148.47877007 10.36928207 148.47877007 8.85855103 148.48774719 C4.68259794 147.77521508 2.96449286 147.12865557 0 144 C-0.90213517 139.46435195 -0.75753518 134.93060391 -0.68115234 130.32714844 C-0.6794596 128.90785799 -0.68041048 127.48856229 -0.68380737 126.0692749 C-0.68552952 122.21793465 -0.65024604 118.36771471 -0.60836363 114.51663494 C-0.57086507 110.49147402 -0.567332 106.46628764 -0.56021118 102.440979 C-0.54155961 94.81934823 -0.49231886 87.1982336 -0.43211424 79.57683015 C-0.36505839 70.89982918 -0.33206251 62.2228036 -0.30194163 53.54560804 C-0.23921971 35.69677935 -0.13367908 17.84843117 0 0 Z " fill="#FEFEFD" transform="translate(269,191)"/>
<path d="M0 0 C0.92490234 -0.020625 1.84980469 -0.04125 2.80273438 -0.0625 C9.88409974 -0.10276363 14.33828663 1.14700556 20.375 4.9375 C26.40983753 10.97233753 27.14937659 16.90435552 27.20739746 25.10772705 C27.19053894 27.0235257 27.19053894 27.0235257 27.17333984 28.97802734 C27.17548885 30.35525879 27.17937122 31.73248845 27.18484497 33.10971069 C27.19448918 36.82844192 27.1793014 40.54668866 27.15893888 44.26536131 C27.1413076 48.1614901 27.14489401 52.05760531 27.1456604 55.95376587 C27.14379138 62.48862778 27.12647441 69.02330314 27.09912109 75.55810547 C27.06759553 83.11771961 27.05712782 90.6771302 27.0585922 98.23680532 C27.05981141 105.51332321 27.04961798 112.78977476 27.03300858 120.06627274 C27.02594071 123.16273135 27.02228181 126.2591665 27.02122116 129.35563278 C27.01921677 132.9951412 27.00704425 136.63447783 26.98688889 140.2739296 C26.9782342 142.25108328 26.97938403 144.22827219 26.98077393 146.20544434 C26.96797897 147.95919876 26.96797897 147.95919876 26.95492554 149.74838257 C26.95157385 150.76855658 26.94822216 151.78873058 26.94476891 152.83981895 C26.6875 155.25 26.6875 155.25 24.6875 157.25 C24.3575 155.93 24.0275 154.61 23.6875 153.25 C23.1925 153.91 22.6975 154.57 22.1875 155.25 C19.28519033 157.57184774 17.32166427 157.84859149 13.6328125 157.6171875 C7.78930477 156.51419608 4.75964944 150.91559135 1.59790039 146.35351562 C-2.03713372 140.44826916 -4.62036775 134.05969699 -7.3125 127.6875 C-7.92937655 126.25067955 -8.5471396 124.81423938 -9.16577148 123.37817383 C-12.79524104 114.92923583 -16.36506118 106.45399551 -19.78515625 97.91796875 C-21.15037026 94.44078689 -21.15037026 94.44078689 -22.54098511 92.05422974 C-26.91343942 83.83149281 -26.94821535 76.13742963 -26.72265625 67.07421875 C-26.70098473 65.53491968 -26.6810326 63.99559556 -26.66270447 62.45625305 C-26.61889859 59.25114824 -26.55731339 56.0470489 -26.48217773 52.8425293 C-26.38717394 48.74623114 -26.33288211 44.65060312 -26.29123783 40.5534544 C-26.25528057 37.38321035 -26.20007786 34.2135288 -26.13888359 31.04368019 C-26.11159374 29.53316815 -26.08970097 28.02254811 -26.07344246 26.51187706 C-26.04739998 24.40112482 -25.99594662 22.2924522 -25.93774414 20.18237305 C-25.91378067 18.98533249 -25.8898172 17.78829193 -25.86512756 16.55497742 C-24.96610079 11.17836686 -21.91366958 7.39553163 -17.8125 3.9375 C-17.2453125 3.44636719 -16.678125 2.95523438 -16.09375 2.44921875 C-11.40295551 -0.70883806 -5.42330025 0.02985988 0 0 Z " fill="#4A5DA0" transform="translate(604.3125,192.75)"/>
<path d="M0 0 C7.77630129 6.59047235 12.77844329 13.33532987 16 23 C16.85673921 35.06778368 17.62850563 50.32431501 12.375 61.4375 C1.16021341 73.53766447 -15.02546658 81.64654992 -31.71875 82.30078125 C-33.31244022 82.31512707 -34.90625847 82.31899976 -36.5 82.3125 C-37.29019531 82.32861328 -38.08039063 82.34472656 -38.89453125 82.36132812 C-46.85491114 82.36784235 -54.14301306 80.6739561 -60 75 C-61.4295229 72.1409542 -61.18299154 69.65412351 -61.24047852 66.45825195 C-61.25347488 65.78645401 -61.26647125 65.11465607 -61.27986145 64.42250061 C-61.40667668 57.39116734 -61.4633413 50.35863583 -61.51489258 43.32641602 C-61.54162055 39.99208162 -61.59032161 36.65918018 -61.65844727 33.32543945 C-61.74056674 29.2964373 -61.78310158 25.26879772 -61.79795647 21.23900414 C-61.81017759 19.70672651 -61.83615011 18.17449197 -61.87640572 16.64269447 C-62.17440786 4.70301715 -62.17440786 4.70301715 -59.3041687 0.54086304 C-57.28029338 -1.27775835 -55.36291407 -2.66053108 -53 -4 C-52.29512955 -4.41742966 -51.59025909 -4.83485931 -50.86402893 -5.26493835 C-34.71297974 -14.34163206 -14.39139698 -10.85176536 0 0 Z " fill="#248B8F" transform="translate(247,436)"/>
<path d="M0 0 C3.0546875 1.94921875 3.0546875 1.94921875 3.7421875 4.38671875 C3.8453125 5.23234375 3.9484375 6.07796875 4.0546875 6.94921875 C5.37134414 8.62909102 6.70731777 10.2938788 8.0546875 11.94921875 C14.21592203 22.67021169 15.54577647 33.38017578 13.4375 45.49609375 C10.35121481 56.91261773 3.9625106 65.60956965 -5.8203125 72.2265625 C-11.5995956 75.41239231 -17.57794171 77.29790061 -23.9453125 78.94921875 C-24.80898437 79.1915625 -25.67265625 79.43390625 -26.5625 79.68359375 C-35.41597558 81.41255531 -44.9710639 76.85023091 -52.50390625 72.45703125 C-54.44727263 71.05538298 -56.19123829 69.57947596 -57.9453125 67.94921875 C-58.84443359 67.20091797 -58.84443359 67.20091797 -59.76171875 66.4375 C-67.90345993 59.17499653 -72.36083394 48.46524769 -73.1953125 37.734375 C-73.67517998 23.923189 -69.01075864 13.37797804 -59.7578125 3.26171875 C-42.62807943 -13.10669285 -19.2908717 -10.41369964 0 0 Z " fill="#2FAB98" transform="translate(267.9453125,333.05078125)"/>
<path d="M0 0 C4.90721202 -0.05001078 9.8142707 -0.08600384 14.72167969 -0.10986328 C16.38576853 -0.11982596 18.04984031 -0.13340102 19.71386719 -0.15087891 C49.38017955 -0.45432494 49.38017955 -0.45432494 57.5625 7.5234375 C61.51048298 12.12194041 62.17427231 14.76751223 62.25 20.75 C62.27578125 21.96171875 62.3015625 23.1734375 62.328125 24.421875 C61.88207453 29.28594919 60.337187 32.57923881 57 36.125 C52.61796153 38.86377404 47.8911794 40.38959417 43 42 C43.65226562 42.268125 44.30453125 42.53625 44.9765625 42.8125 C55.80758539 47.66888784 59.27078565 54.86944918 63.5534668 65.45239258 C65.46481618 70.3148707 65.46481618 70.3148707 69 74 C70.485 74.495 70.485 74.495 72 75 C72 76.98 72 78.96 72 81 C64.41 81 56.82 81 49 81 C48.25234375 78.97617187 47.5046875 76.95234375 46.734375 74.8671875 C45.99810575 72.89057876 45.25919049 70.9149783 44.52001953 68.93945312 C44.01106414 67.57492339 43.5048289 66.20937565 43.00146484 64.84277344 C42.27388642 62.86894682 41.53632674 60.89909209 40.796875 58.9296875 C40.35698242 57.74616699 39.91708984 56.56264648 39.46386719 55.34326172 C37.94611299 51.87692985 36.32085281 48.98937727 34 46 C30.38583483 44.56082568 30.38583483 44.56082568 27 44 C27.10991641 48.08388613 27.24053855 52.16685411 27.375 56.25 C27.4059375 57.40886719 27.436875 58.56773437 27.46875 59.76171875 C27.50742187 60.87675781 27.54609375 61.99179687 27.5859375 63.140625 C27.63306885 64.68024902 27.63306885 64.68024902 27.68115234 66.25097656 C28.00399671 69.03445858 28.39477942 70.71130404 30 73 C33.54588501 74.29920746 33.54588501 74.29920746 37 75 C37 76.98 37 78.96 37 81 C25.12 81 13.24 81 1 81 C1 79.02 1 77.04 1 75 C2.134375 74.566875 3.26875 74.13375 4.4375 73.6875 C5.613125 73.130625 6.78875 72.57375 8 72 C9.04510034 68.86469897 9.12681496 66.67264983 9.12939453 63.3828125 C9.13254669 62.23151855 9.13569885 61.08022461 9.13894653 59.89404297 C9.1369223 58.65025879 9.13489807 57.40647461 9.1328125 56.125 C9.13376923 54.84898926 9.13472595 53.57297852 9.13571167 52.25830078 C9.13639271 49.55823385 9.13504434 46.85825718 9.13037109 44.15820312 C9.12467398 40.6980221 9.12795469 37.23791865 9.13394356 33.77774048 C9.13842669 30.4768242 9.13528746 27.17591729 9.1328125 23.875 C9.13584885 22.00932373 9.13584885 22.00932373 9.13894653 20.10595703 C9.13421829 18.37901611 9.13421829 18.37901611 9.12939453 16.6171875 C9.12859894 15.60253418 9.12780334 14.58788086 9.12698364 13.54248047 C9.10787707 10.87611239 9.10787707 10.87611239 8 8 C5.36 7.67 2.72 7.34 0 7 C0 4.69 0 2.38 0 0 Z " fill="#238A8E" transform="translate(273,435)"/>
<path d="M0 0 C8.2574819 3.78519972 13.05159294 9.89662007 16.70703125 18.12109375 C17.02293213 18.80880859 17.33883301 19.49652344 17.66430664 20.20507812 C21.94217624 29.66152611 25.87640974 39.27963492 29.84008789 48.87109375 C30.11712555 49.53951294 30.39416321 50.20793213 30.67959595 50.89660645 C31.44333987 52.74075943 32.20405611 54.58616546 32.96459961 56.43164062 C33.89310983 58.99081957 33.89310983 58.99081957 35.14453125 60.12109375 C37.01775073 60.2816319 37.01775073 60.2816319 39.14453125 60.24609375 C39.86640625 60.24867188 40.58828125 60.25125 41.33203125 60.25390625 C43.1654254 60.31804651 43.1654254 60.31804651 44.14453125 59.12109375 C44.28016492 56.11635961 44.35518074 53.13140181 44.390625 50.125 C44.42355866 48.26887541 44.45677039 46.41275573 44.49023438 44.55664062 C44.53771826 41.61583804 44.58214503 38.67505609 44.62133789 35.73413086 C44.66093871 32.90587366 44.71250942 30.07803104 44.765625 27.25 C44.77403915 26.36663467 44.78245331 25.48326935 44.79112244 24.57313538 C44.91785773 18.34776727 44.91785773 18.34776727 47.14453125 16.12109375 C49.16796875 15.75 49.16796875 15.75 51.51953125 15.68359375 C52.29039062 15.64363281 53.06125 15.60367187 53.85546875 15.5625 C57.35761238 16.41711867 58.24657389 18.10181672 60.14453125 21.12109375 C60.72031667 24.01480914 60.70572376 26.84581409 60.67578125 29.7890625 C60.68152161 31.04134392 60.68152161 31.04134392 60.68737793 32.31892395 C60.69009398 34.08315234 60.68275422 35.8474212 60.66601562 37.61157227 C60.6447351 40.28300305 60.66575582 42.95170307 60.69140625 45.62304688 C60.72465436 65.13774649 60.72465436 65.13774649 54.54443359 71.86206055 C49.28059378 76.45152654 41.74932613 75.7472387 35.16796875 75.58984375 C29.94595922 75.20776047 25.58343729 73.18645156 22.08203125 69.24609375 C19.62953719 66.12196231 18.25201268 63.12080212 16.8984375 59.39453125 C14.16080575 52.08360662 11.16477326 44.90548512 8.06054688 37.74316406 C7.44465411 36.31636772 6.83405675 34.88727502 6.22851562 33.45605469 C5.33708299 31.34963946 4.43015403 29.25052222 3.51953125 27.15234375 C3.25479004 26.51897095 2.99004883 25.88559814 2.71728516 25.23303223 C0.8546943 21.00806859 -1.31202406 18.0822434 -4.85546875 15.12109375 C-8.90388725 14.47045506 -10.92369129 14.50241892 -14.36279297 16.78588867 C-17.12402483 19.37268424 -18.52784024 21.68010774 -20.23828125 25.046875 C-20.68264526 25.91114609 -20.68264526 25.91114609 -21.13598633 26.7928772 C-22.09567933 28.66749299 -23.0381322 30.55020237 -23.98046875 32.43359375 C-24.64356413 33.73616825 -25.3074721 35.03832939 -25.97216797 36.34008789 C-30.59349026 45.43006417 -35.04491911 54.60272585 -39.26611328 63.88598633 C-41.61224055 68.94895335 -43.92049402 73.12806201 -47.85546875 77.12109375 C-50.85546875 77.87109375 -50.85546875 77.87109375 -53.85546875 77.12109375 C-56.79296875 74.49609375 -56.79296875 74.49609375 -58.85546875 71.12109375 C-58.61292351 65.7202889 -56.26828344 61.4274582 -53.84765625 56.71484375 C-53.44394806 55.91308716 -53.04023987 55.11133057 -52.6242981 54.28527832 C-51.33385477 51.72667655 -50.03243977 49.17384554 -48.73046875 46.62109375 C-47.87816265 44.93657394 -47.0265933 43.25168116 -46.17578125 41.56640625 C-44.51630381 38.28036772 -42.84945203 34.99821652 -41.1784668 31.71801758 C-39.70850289 28.82473556 -38.26491734 25.92165062 -36.85473633 22.9987793 C-34.0003425 17.09711249 -31.3443148 11.70695668 -26.79296875 6.93359375 C-25.99761719 6.07378906 -25.20226562 5.21398437 -24.3828125 4.328125 C-17.30834738 -1.84973094 -8.88444492 -2.73461027 0 0 Z " fill="#248B8F" transform="translate(576.85546875,436.87890625)"/>
<path d="M0 0 C6.64441595 4.70411112 11.74601547 10.04665457 14 18 C15.46766868 28.26239103 13.95898539 36.4702134 8 45 C5.88952579 47.48734461 3.7628061 49.27610033 1 51 C0.35546875 51.40992188 -0.2890625 51.81984375 -0.953125 52.2421875 C-8.35437899 56.21693501 -16.76358813 56.15244278 -24.83984375 54.375 C-32.04410876 51.88847402 -37.62274884 47.25838034 -41.34765625 40.5859375 C-45.05237494 32.43290067 -46.83183734 24.55634795 -43.94140625 15.7890625 C-40.25446482 7.85564382 -35.44665695 1.84991044 -27.4375 -1.9375 C-19.17357018 -4.57213901 -7.52144732 -4.76304873 0 0 Z " fill="#4C60A1" transform="translate(620,130)"/>
<path d="M0 0 C3.6270442 0.8419924 6.74041809 0.14004398 10.40625 -0.44140625 C10.744579 2.7664206 11.07601146 5.97492473 11.40625 9.18359375 C11.50164062 10.08722656 11.59703125 10.99085938 11.6953125 11.921875 C12.16204891 16.48922414 12.52847799 20.95976563 12.40625 25.55859375 C9.43625 26.05359375 9.43625 26.05359375 6.40625 26.55859375 C6.09171875 25.76195312 5.7771875 24.9653125 5.453125 24.14453125 C1.416502 13.39262699 1.416502 13.39262699 -6.59375 5.55859375 C-10.66422347 4.20176926 -14.33766717 4.03387121 -18.59375 4.55859375 C-24.76391277 7.70188422 -28.57578501 12.3641942 -30.84375 18.87109375 C-32.76751811 25.4906738 -32.95822874 31.87518206 -32.96875 38.74609375 C-32.97036133 39.75518799 -32.97197266 40.76428223 -32.97363281 41.80395508 C-32.82266614 52.05878541 -31.91894637 63.07848258 -24.4453125 70.76953125 C-20.83541746 73.03436951 -17.89482489 73.01328839 -13.78125 72.80859375 C-13.08837891 72.79054688 -12.39550781 72.7725 -11.68164062 72.75390625 C-9.98507336 72.70710439 -8.28922524 72.63536999 -6.59375 72.55859375 C-6.47773996 68.95469711 -6.40656592 65.35127908 -6.34375 61.74609375 C-6.31023437 60.72193359 -6.27671875 59.69777344 -6.2421875 58.64257812 C-6.22929687 57.65966797 -6.21640625 56.67675781 -6.203125 55.6640625 C-6.18217773 54.75809326 -6.16123047 53.85212402 -6.13964844 52.91870117 C-6.38542354 50.41577799 -6.38542354 50.41577799 -8.44628906 48.7824707 C-10.83567289 47.4207175 -12.88231671 46.93518171 -15.59375 46.55859375 C-15.59375 44.90859375 -15.59375 43.25859375 -15.59375 41.55859375 C-4.04375 41.55859375 7.50625 41.55859375 19.40625 41.55859375 C19.40625 43.20859375 19.40625 44.85859375 19.40625 46.55859375 C17.42625 47.21859375 15.44625 47.87859375 13.40625 48.55859375 C13.07625 57.46859375 12.74625 66.37859375 12.40625 75.55859375 C7.95125 76.54859375 7.95125 76.54859375 3.40625 77.55859375 C1.81918829 78.08923708 0.23520058 78.62928131 -1.34375 79.18359375 C-11.90449171 82.05837958 -25.37377224 82.70393359 -35.46875 78.12109375 C-44.39142365 72.63802829 -48.91280112 64.83923125 -51.7109375 54.859375 C-54.97113269 40.92024385 -53.36134391 25.77975257 -46.40625 13.24609375 C-35.89903025 -1.8600307 -17.0243128 -7.14639996 0 0 Z " fill="#258B8F" transform="translate(487.59375,436.44140625)"/>
<path d="M0 0 C5.65102179 3.45620529 9.59379037 8.8946945 11.9375 15.0078125 C12.83120562 20.98834178 12.36682058 27.00467582 11.9375 33.0078125 C11.90140625 33.99136719 11.8653125 34.97492188 11.828125 35.98828125 C11.52788453 40.96726899 10.32405065 43.42502133 6.9375 47.0078125 C-5.8483968 55.08138135 -19.06310424 58.03815408 -34.0625 57.0078125 C-35.75928866 55.31102384 -35.23360537 53.14148867 -35.27124023 50.81713867 C-35.30017616 49.15487495 -35.30017616 49.15487495 -35.32969666 47.45903015 C-35.38715459 42.38148998 -35.43671338 37.30409641 -35.4675293 32.22631836 C-35.48533697 29.54386508 -35.52013907 26.86246433 -35.57006836 24.18041992 C-35.63680971 20.32438492 -35.66448824 16.4698111 -35.68359375 12.61328125 C-35.71142441 11.41213181 -35.73925507 10.21098236 -35.76792908 8.97343445 C-35.76022291 5.86921907 -35.70293242 3.04522366 -35.0625 0.0078125 C-25.42966835 -9.19942268 -10.7244543 -5.15911249 0 0 Z " fill="#FDFDFE" transform="translate(236.0625,445.9921875)"/>
<path d="M0 0 C11.88 0 23.76 0 36 0 C36 1.98 36 3.96 36 6 C34.865625 6.45375 33.73125 6.9075 32.5625 7.375 C28.95278308 8.57095806 28.95278308 8.57095806 28 11 C27.89022887 12.48336131 27.84096083 13.97143132 27.82299805 15.45874023 C27.81016281 16.38408066 27.79732758 17.30942108 27.78410339 18.26280212 C27.77671646 19.26791336 27.76932953 20.2730246 27.76171875 21.30859375 C27.753647 22.3450856 27.74557526 23.38157745 27.73725891 24.44947815 C27.72340459 26.65111616 27.7126885 28.85277577 27.70483398 31.05444336 C27.68772881 34.39284339 27.64386728 37.73022513 27.59960938 41.06835938 C27.58947288 43.21093024 27.58095978 45.35350951 27.57421875 47.49609375 C27.55671066 48.48298691 27.53920258 49.46988007 27.52116394 50.48667908 C27.54571279 58.4893931 28.90844282 66.50206509 34.34765625 72.65625 C39.366816 75.19909382 44.53190028 74.65424367 50 74 C54.66536664 72.11748363 56.25093367 69.90623508 58.3125 65.5 C60.05741875 61.2002846 61.11819838 57.33063402 61.16113281 52.67797852 C61.17074036 51.83352676 61.1803479 50.98907501 61.19024658 50.11903381 C61.1966214 48.76267067 61.1966214 48.76267067 61.203125 47.37890625 C61.21167511 45.97353859 61.21167511 45.97353859 61.22039795 44.53977966 C61.2298331 42.560304 61.23637602 40.58081274 61.24023438 38.60131836 C61.2499533 35.57703287 61.28099612 32.55342336 61.3125 29.52929688 C61.31902921 27.60417069 61.32428 25.67903966 61.328125 23.75390625 C61.3404718 22.85168839 61.3528186 21.94947052 61.36553955 21.01991272 C61.34674273 15.7111033 60.94785481 11.94785481 57 8 C54.67182036 7.63239269 52.3381615 7.29758419 50 7 C50 4.69 50 2.38 50 0 C59.57 0 69.14 0 79 0 C79 2.31 79 4.62 79 7 C77.906875 7.04125 76.81375 7.0825 75.6875 7.125 C71.8766704 7.59614299 71.8766704 7.59614299 70.29711914 10.44995117 C68.64225122 14.97911256 68.55922225 18.89275226 68.55859375 23.67578125 C68.54538589 24.60037643 68.53217804 25.52497162 68.51856995 26.47758484 C68.47783031 29.42258709 68.45606281 32.3672807 68.4375 35.3125 C68.41359195 38.24691087 68.38524738 41.18103631 68.34571838 44.11528015 C68.321666 45.93615304 68.30656105 47.757175 68.30210876 49.57820129 C68.17936301 59.71015682 66.1677919 67.8058592 60 76 C53.1446902 81.94126849 44.92480738 83.55947225 36.0546875 83.27734375 C26.95831786 82.45145853 20.00738394 80.12668424 14 73 C10.28624226 67.31060951 8.88599503 61.77752526 8.8581543 54.99780273 C8.85111984 54.03007431 8.84408539 53.06234589 8.83683777 52.06529236 C8.83267349 51.03183182 8.82850922 49.99837128 8.82421875 48.93359375 C8.80103427 46.73501632 8.77691751 44.53644856 8.75195312 42.33789062 C8.71675377 38.87924584 8.6874361 35.42096089 8.67407227 31.9621582 C8.65863474 28.61886539 8.61846975 25.27661286 8.57421875 21.93359375 C8.57612717 20.89810898 8.57803558 19.86262421 8.58000183 18.79576111 C8.57406872 13.20854502 8.57406872 13.20854502 6.10473633 8.36352539 C4.02200123 7.0142532 2.4477124 6.3496732 0 6 C0 4.02 0 2.04 0 0 Z " fill="#288D91" transform="translate(348,435)"/>
<path d="M0 0 C1.46366342 0.39753821 2.9208935 0.81881384 4.375 1.25 C5.59316406 1.59804688 5.59316406 1.59804688 6.8359375 1.953125 C9.54866803 3.26542063 9.84601514 4.26841559 11 7 C12.12522108 8.61869152 13.2727918 10.22198451 14.4375 11.8125 C21.79246385 22.22566087 23.39453028 33.38310754 22 46 C20.83855769 50.63575682 19.14509148 54.73826653 17 59 C16.56558594 59.91394531 16.13117188 60.82789063 15.68359375 61.76953125 C14.30633002 64.26116221 13.1289402 66.10760871 11 68 C8.43762635 68.65458957 6.16045694 68.74968105 3.51953125 68.7734375 C-0.00614389 69.09047495 -2.11567203 70.58625075 -4.91796875 72.6484375 C-11.18140313 76.71438177 -16.12299922 77.41736747 -23.4375 77.1875 C-24.67790039 77.16719727 -24.67790039 77.16719727 -25.94335938 77.14648438 C-27.9625264 77.11146992 -29.98135318 77.05767562 -32 77 C-32 76.67 -32 76.34 -32 76 C-30.44152344 75.65388672 -30.44152344 75.65388672 -28.8515625 75.30078125 C-14.52589562 72.00054659 -3.10291803 67.61425372 5.38671875 54.8515625 C11.27942718 44.43587932 13.15313738 31.71617644 10.26953125 20.04296875 C7.96824665 13.92812681 4.64501946 7.64501946 0 3 C0 2.01 0 1.02 0 0 Z " fill="#1E8785" transform="translate(270,336)"/>
<path d="M0 0 C21.223125 -0.04125 42.44625 -0.0825 64.3125 -0.125 C71.01989502 -0.14320801 77.72729004 -0.16141602 84.63793945 -0.18017578 C92.81286621 -0.18920898 92.81286621 -0.18920898 96.6368866 -0.19088745 C99.31432922 -0.19396369 101.99158496 -0.20026559 104.66899109 -0.21115112 C108.71857248 -0.22739808 112.76801308 -0.22781404 116.81762695 -0.22705078 C118.6142136 -0.23784511 118.6142136 -0.23784511 120.44709492 -0.2488575 C122.07802224 -0.24472501 122.07802224 -0.24472501 123.74189758 -0.24050903 C124.69042256 -0.24235262 125.63894754 -0.24419621 126.61621571 -0.24609566 C129 0 129 0 132 2 C89.1 2 46.2 2 2 2 C2 71.63 2 141.26 2 213 C1.34 213.33 0.68 213.66 0 214 C0 143.38 0 72.76 0 0 Z " fill="#E48345" transform="translate(204,127)"/>
<path d="M0 0 C2 2 2 2 2 5.5625 C0.81458961 13.15739681 -4.40076676 19.13876323 -10.28125 23.78125 C-15.25800059 27.3102186 -18.86777465 28.48095885 -25 28 C-26 27 -26 27 -26.4375 23.5 C-26.31846609 16.83410089 -22.25902084 12.2746272 -17.73828125 7.72265625 C-11.88188039 2.36961547 -8.21729792 -0.60868874 0 0 Z " fill="#7EC2B2" transform="translate(231,332)"/>
<path d="M0 0 C5.71062135 0 7.417346 0.11093552 12 3 C16.60174798 7.97486268 17.2897232 11.86280101 17.22265625 18.42578125 C16.8381822 22.87084085 15.33873328 26.23530613 12.625 29.8125 C8.33039122 32.95086795 5.43559022 33 0 33 C0 22.11 0 11.22 0 0 Z " fill="#F2F8F8" transform="translate(300,441)"/>
<path d="M0 0 C2.97672584 1.77280561 5.42804007 3.85608015 7 7 C7.59873168 12.26883876 6.25400021 14.8846468 3 19 C-0.47263273 20.73631636 -4.21193013 20.60190402 -8 20 C-11.65305395 17.10799895 -13.74232841 14.88959163 -14.375 10.25 C-13.8528401 5.7246142 -12.15770622 4.2328897 -9 1 C-5.85088521 -0.57455739 -3.47991184 -0.34799118 0 0 Z " fill="#268B8F" transform="translate(631,426)"/>
<path d="M0 0 C8.69105367 7.94610621 11.82792486 16.02318599 12.38500977 27.67944336 C12.60406535 36.3204222 10.92724153 43.20785411 7 51 C6.55398438 51.92554688 6.10796875 52.85109375 5.6484375 53.8046875 C4.27081278 56.27517652 3.12418182 58.13071999 1 60 C-2.13840186 60.72028895 -4.84648408 60.56763287 -8 60 C-7.29875 59.360625 -6.5975 58.72125 -5.875 58.0625 C3.04535362 48.99052564 7.11101803 38.10534625 7.5 25.4375 C7.25484299 16.66632685 5.3324536 9.01316964 0 2 C0 1.34 0 0.68 0 0 Z " fill="#0A7376" transform="translate(280,344)"/>
<path d="M0 0 C16.5 0 33 0 50 0 C50 1.32 50 2.64 50 4 C33.5 4 17 4 0 4 C0 2.68 0 1.36 0 0 Z " fill="#FBFBFD" transform="translate(580,154)"/>
<path d="M0 0 C0.33 0 0.66 0 1 0 C1.04667168 18.21918142 1.08196509 36.43834738 1.10362434 54.65757561 C1.11394735 63.11662669 1.12802718 71.57564069 1.15087891 80.03466797 C1.17078151 87.40551532 1.18370898 94.77633581 1.18817699 102.14720929 C1.1907897 106.05187689 1.1969518 109.95646765 1.21146011 113.86111069 C1.22499466 117.53329672 1.22923106 121.20537395 1.22621536 124.87758255 C1.22703138 126.87392816 1.23781455 128.87026182 1.24884033 130.86657715 C1.246091 132.04730804 1.24334167 133.22803894 1.24050903 134.44454956 C1.24235262 135.47511412 1.24419621 136.50567867 1.24609566 137.56747246 C1 140 1 140 -1 142 C-1.38133299 140.0085944 -1.71325582 138.00720923 -2 136 C-1.67 135.67 -1.34 135.34 -1 135 C-0.89150558 133.25411375 -0.85312964 131.50384069 -0.84178162 129.75462341 C-0.82709839 128.04869522 -0.82709839 128.04869522 -0.81211853 126.30830383 C-0.80636307 125.04954941 -0.8006076 123.79079498 -0.79467773 122.49389648 C-0.78477814 121.17701843 -0.77487854 119.86014038 -0.76467896 118.50335693 C-0.73756567 114.88165045 -0.71659102 111.25993085 -0.69667697 107.63817859 C-0.67485689 103.85715497 -0.64744881 100.07617208 -0.62062073 96.29518127 C-0.57063987 89.13058664 -0.52572112 81.96596946 -0.48259836 74.80133063 C-0.43327198 66.64665946 -0.37833685 58.49202914 -0.32291877 50.33739746 C-0.20901597 33.5583026 -0.1021951 16.77917034 0 0 Z " fill="#676BA7" transform="translate(630,208)"/>
<path d="M0 0 C0.66 0 1.32 0 2 0 C0.55746343 3.36591866 -1.33264727 5.51047079 -4 8 C-4.66 7.67 -5.32 7.34 -6 7 C-5.04882866 5.8274869 -4.08882991 4.66212985 -3.125 3.5 C-2.59132813 2.8503125 -2.05765625 2.200625 -1.5078125 1.53125 C-0.76144531 0.77328125 -0.76144531 0.77328125 0 0 Z " fill="#5470AB" transform="translate(586,132)"/>
</svg>
